:FULLY-SPECIFIED
:FORCE-ALL-JOINTS-BE-3DOF
:DEGREES
510
root 5.92724 16.1739 -5.21864 -173.1 72.6786 -175.477
lfemur -29.6682 -19.9598 -27.0737
ltibia 59.5925 -0 0
lfoot -30.711 -6.44443 -0.0810204
ltoes 11.5876 -0 0
rfemur -67.3499 8.41029 6.70606
rtibia 71.3022 -0 0
rfoot 11.8541 11.3649 -0.0257732
rtoes -21.3065 0 0
lowerback 9.90213 0.0591887 -0.970419
upperback 1.46042 0.199899 3.04912
thorax -4.0548 0.16281 3.68788
lowerneck -10.6923 -13.9329 -4.09674
upperneck 13.4763 -18.5024 2.86171
head 6.32311 -9.04708 0.131741
lclavicle -1.96892e-14 1.32523e-14 0
lhumerus -57.5232 -31.9416 127.124
lradius 65.714 -0 0
lwrist 7.3982 0 0
lhand 7.98261 -0.319467 0.166404
lfingers 7.12502 0 0
lthumb 37.7375 31.7899 0.109561
rclavicle -1.96892e-14 1.32523e-14 0
rhumerus -27.5872 45.8974 -94.1026
rradius 118.04 -0 0
rwrist 2.5263 0 0
rhand 9.1577 -14.4454 0.124724
rfingers 7.12502 0 0
rthumb 38.7798 -45.6991 0.163961
511
root 5.98942 16.1236 -5.16354 -172.826 73.0513 -175.313
lfemur -29.1778 -19.8019 -26.7127
ltibia 59.0138 -0 0
lfoot -30.353 -6.36134 -0.0837841
ltoes 11.3334 -0 0
rfemur -66.863 8.37508 6.54716
rtibia 70.4177 -0 0
rfoot 11.6389 11.2683 -0.0243802
rtoes -21.037 0 0
lowerback 9.8211 0.0640128 -0.96518
upperback 1.45319 0.204551 3.02882
thorax -4.01656 0.165145 3.66359
lowerneck -10.5508 -13.7844 -4.07187
upperneck 13.3579 -18.3058 2.8191
head 6.25966 -8.94803 0.12782
lclavicle -2.14901e-14 1.31198e-14 0
lhumerus -56.7501 -32.1891 126.614
lradius 65.071 -0 0
lwrist 7.2955 0 0
lhand 7.95135 -0.311901 0.166225
lfingers 7.12502 0 0
lthumb 37.3513 31.3857 0.110784
rclavicle -2.14901e-14 1.31198e-14 0
rhumerus -26.5998 46.2203 -93.0281
rradius 117.856 -0 0
rwrist 2.27933 0 0
rhand 9.34938 -14.1422 0.0897601
rfingers 7.12502 0 0
rthumb 38.6116 -45.0453 0.124264
512
root 6.05161 16.0732 -5.10844 -172.277 73.9734 -174.957
lfemur -28.358 -19.5182 -26.0652
ltibia 57.8777 -0 0
lfoot -29.6895 -6.27298 -0.0833296
ltoes 11.0282 -0 0
rfemur -65.9085 8.27161 6.35852
rtibia 69.0682 -0 0
rfoot 11.2571 11.0444 -0.0210848
rtoes -20.4776 0 0
lowerback 9.62736 0.06407 -0.961991
upperback 1.42051 0.198272 2.96095
thorax -3.94054 0.161102 3.59215
lowerneck -10.3045 -13.4782 -3.99183
upperneck 13.0875 -17.9018 2.73752
head 6.12606 -8.74604 0.120577
lclavicle -2.3291e-14 1.29872e-14 0
lhumerus -55.3899 -32.616 125.611
lradius 63.8883 -0 0
lwrist 7.08019 0 0
lhand 7.93056 -0.268013 0.158698
lfingers 7.12502 0 0
lthumb 36.6959 30.6948 0.107484
rclavicle -2.3291e-14 1.29872e-14 0
rhumerus -25.4224 46.6882 -91.2813
rradius 117.17 -0 0
rwrist 2.20181 0 0
rhand 9.58534 -13.6487 0.0419474
rfingers 7.12502 0 0
rthumb 38.2146 -43.9221 0.0686233
513
root 6.11379 16.0228 -5.05333 -171.374 75.3842 -174.36
lfemur -27.2908 -19.1324 -25.2006
ltibia 56.294 -0 0
lfoot -28.7939 -6.1805 -0.0803901
ltoes 10.6847 -0 0
rfemur -64.565 8.11429 6.14757
rtibia 67.3262 -0 0
rfoot 10.7509 10.7237 -0.0162176
rtoes -19.7028 0 0
lowerback 9.34927 0.0606043 -0.959801
upperback 1.36932 0.184028 2.85792
thorax -3.83579 0.152403 3.48554
lowerneck -9.97953 -13.0539 -3.87069
upperneck 12.703 -17.342 2.6279
head 5.93993 -8.46734 0.111138
lclavicle -2.50919e-14 1.28547e-14 0
lhumerus -53.5635 -33.1982 124.133
lradius 62.2612 -0 0
lwrist 6.78384 0 0
lhand 7.91223 -0.197835 0.145611
lfingers 7.12502 0 0
lthumb 35.8274 29.7844 0.100647
rclavicle -2.50919e-14 1.28547e-14 0
rhumerus -24.1081 47.2479 -88.9073
rradius 116.033 -0 0
rwrist 2.24817 0 0
rhand 9.84384 -13.0169 -0.0155291
rfingers 7.12502 0 0
rthumb 37.6322 -42.4346 0.000165795
514
root 6.17598 15.9725 -4.99823 -169.942 77.2259 -173.406
lfemur -26.0588 -18.669 -24.1887
ltibia 54.3771 -0 0
lfoot -27.7401 -6.08484 -0.0757115
ltoes 10.3147 -0 0
rfemur -62.9138 7.9178 5.92135
rtibia 65.2696 -0 0
rfoot 10.1621 10.3373 -0.0101372
rtoes -18.7871 0 0
lowerback 9.01514 0.0548768 -0.957576
upperback 1.30656 0.164802 2.73213
thorax -3.71133 0.140783 3.35579
lowerneck -9.60199 -12.5512 -3.72249
upperneck 12.2422 -16.6781 2.50102
head 5.71882 -8.13804 0.100597
lclavicle -2.68928e-14 1.27222e-14 0
lhumerus -51.3976 -33.9089 122.186
lradius 60.2892 -0 0
lwrist 6.43769 0 0
lhand 7.88861 -0.111378 0.128758
lfingers 7.12502 0 0
lthumb 34.8027 28.7222 0.0912701
rclavicle -2.68928e-14 1.27222e-14 0
rhumerus -22.7084 47.8386 -85.9564
rradius 114.489 -0 0
rwrist 2.37194 0 0
rhand 10.1045 -12.2979 -0.0794344
rfingers 7.12502 0 0
rthumb 36.9087 -40.6909 -0.0776902
